<svg version="1.1" xmlns="http://www.w3.org/2000/svg" viewBox="0 0 1771.772784323431 623.6230363152052" width="1771.772784323431" height="623.6230363152052">
  <!-- svg-source:excalidraw -->
  
  <defs>
    <style class="style-fonts">
      @font-face {
        font-family: "Virgil";
        src: url("https://excalidraw.com/Virgil.woff2");
      }
      @font-face {
        font-family: "Cascadia";
        src: url("https://excalidraw.com/Cascadia.woff2");
      }
    </style>
    
  </defs>
  <rect x="0" y="0" width="1771.772784323431" height="623.6230363152052" fill="#ffffff"></rect><g stroke-linecap="round" transform="translate(1531.3642137977454 9.999999999999972) rotate(0 115.12138114156323 28.78034528539078)"><path d="M69.23 2.89 C81.89 1.08, 99.62 1.03, 115.16 0.9 C130.69 0.77, 148.04 0.81, 162.44 2.13 C176.84 3.45, 191.23 5.89, 201.54 8.82 C211.84 11.75, 219.44 15.72, 224.27 19.71 C229.09 23.7, 232.15 28.72, 230.49 32.77 C228.83 36.82, 222.44 40.75, 214.3 44.01 C206.16 47.27, 194.47 50.27, 181.66 52.33 C168.85 54.39, 152.72 55.55, 137.44 56.38 C122.17 57.2, 105.02 58.12, 90 57.27 C74.97 56.43, 59.79 53.78, 47.3 51.29 C34.81 48.81, 22.8 45.51, 15.05 42.35 C7.31 39.19, 2.23 36.16, 0.85 32.33 C-0.53 28.51, 1.84 23.1, 6.75 19.37 C11.67 15.64, 19.29 12.75, 30.35 9.96 C41.42 7.17, 65.11 3.87, 73.13 2.65 C81.15 1.43, 77.67 2.22, 78.48 2.64 M81.41 1.85 C95.2 0.35, 112.96 1.07, 128.67 1.64 C144.37 2.21, 162.13 3.38, 175.64 5.27 C189.15 7.15, 201.12 9.81, 209.72 12.95 C218.33 16.09, 224.49 20.62, 227.27 24.1 C230.05 27.58, 229.57 29.93, 226.41 33.83 C223.25 37.73, 217.39 44.24, 208.32 47.49 C199.25 50.73, 185.65 51.56, 172 53.31 C158.34 55.06, 142.04 57.52, 126.38 57.98 C110.72 58.45, 93.01 57.35, 78.03 56.12 C63.06 54.89, 47.73 53.32, 36.51 50.6 C25.29 47.89, 16.91 43.48, 10.72 39.84 C4.53 36.21, -0.83 32.78, -0.6 28.78 C-0.38 24.79, 5.39 19.52, 12.08 15.9 C18.77 12.28, 27.91 9.3, 39.54 7.07 C51.18 4.84, 74.79 3.13, 81.9 2.5 C89.01 1.88, 81.54 2.82, 82.18 3.31" stroke="#1971c2" stroke-width="1" fill="none"></path></g><g stroke-linecap="round" transform="translate(1530.025593086797 298.03896970136213) rotate(0 115.12138114156323 28.78034528539081)"><path d="M148.67 0.59 C163.26 1.09, 179.25 3.69, 190.95 6.41 C202.65 9.13, 212.36 13.35, 218.88 16.91 C225.4 20.47, 229.72 24.04, 230.09 27.76 C230.46 31.47, 227.09 35.5, 221.11 39.2 C215.14 42.89, 205.8 46.97, 194.22 49.92 C182.64 52.87, 166.47 55.69, 151.65 56.91 C136.82 58.12, 120.57 57.76, 105.28 57.22 C89.99 56.68, 73.73 55.47, 59.91 53.68 C46.09 51.88, 31.91 49.65, 22.34 46.42 C12.77 43.19, 5.75 38.02, 2.5 34.3 C-0.75 30.58, -0.11 27.86, 2.86 24.12 C5.83 20.38, 11.35 15.25, 20.33 11.85 C29.32 8.45, 43.16 5.79, 56.76 3.73 C70.36 1.67, 83.6 -0.44, 101.95 -0.52 C120.31 -0.59, 153.54 2.32, 166.88 3.28 C180.22 4.24, 182.8 4.94, 182 5.26 M166.32 3.22 C180.2 4.37, 193.6 7.35, 203.53 10.24 C213.46 13.14, 221.57 17.01, 225.9 20.6 C230.23 24.19, 231.67 27.92, 229.52 31.77 C227.36 35.61, 221.28 40, 212.98 43.68 C204.67 47.36, 192.91 51.38, 179.69 53.84 C166.47 56.3, 149.15 58.03, 133.65 58.43 C118.15 58.84, 101.56 57.73, 86.67 56.29 C71.79 54.84, 56.65 52.07, 44.31 49.78 C31.98 47.5, 20.16 45.67, 12.68 42.57 C5.19 39.48, 0.52 35.37, -0.6 31.19 C-1.71 27.01, 0.45 21.18, 6 17.5 C11.55 13.81, 21.72 11.72, 32.72 9.1 C43.72 6.47, 57.38 3.13, 72.02 1.75 C86.67 0.37, 104.64 0.47, 120.61 0.79 C136.58 1.12, 160.11 3.37, 167.85 3.71 C175.59 4.05, 168.26 2.55, 167.06 2.86" stroke="#1971c2" stroke-width="1" fill="none"></path></g><g stroke-linecap="round"><g transform="translate(1528.6869723758487 327.25310849477273) rotate(0 1.338620710948362 -143.90172642695387)"><path d="M0.3 -0.13 C0.5 -48.04, 1.79 -238.72, 2.13 -286.69 M-1 -1.24 C-1.08 -49.53, 0.5 -240.65, 0.89 -288.23" stroke="#1971c2" stroke-width="1" fill="none"></path></g></g><mask></mask><g stroke-linecap="round"><g transform="translate(1758.9297346589751 325.91448778382437) rotate(0 1.338620710948362 -143.9017264269539)"><path d="M-0.41 0.95 C-0.09 -46.89, 2.33 -240, 2.84 -288.07 M1.57 0.41 C1.68 -47.17, 1.92 -238.94, 1.98 -286.68" stroke="#1971c2" stroke-width="1" fill="none"></path></g></g><mask></mask><g transform="translate(1603.6497321889597 118.67653367715187) rotate(0 35.58998107910156 12.5)"><text x="0" y="0" font-family="Virgil, Segoe UI Emoji" font-size="20px" fill="#1971c2" text-anchor="start" style="white-space: pre;" direction="ltr" dominant-baseline="text-before-edge">RDBMS</text></g><g stroke-linecap="round" transform="translate(1080.5693079449115 96.05978113072862) rotate(0 144.1329335609845 111.87461033543082)"><path d="M32 0 M32 0 C95.34 -1.51, 161.93 -0.11, 256.27 0 M32 0 C78.49 -0.8, 126.61 0.69, 256.27 0 M256.27 0 C276.33 1.58, 286.45 11.93, 288.27 32 M256.27 0 C279.66 1.39, 289.19 11.69, 288.27 32 M288.27 32 C288.48 96.25, 288.12 160.47, 288.27 191.75 M288.27 32 C287.05 89.23, 287.19 145.92, 288.27 191.75 M288.27 191.75 C289.64 211.45, 279.13 224.86, 256.27 223.75 M288.27 191.75 C286.23 213.68, 278.51 222.54, 256.27 223.75 M256.27 223.75 C194.75 223.08, 130.62 223.31, 32 223.75 M256.27 223.75 C196.1 224.8, 137.59 225.74, 32 223.75 M32 223.75 C9.76 222.12, 0.19 211.92, 0 191.75 M32 223.75 C11.8 222.87, 0.07 213.83, 0 191.75 M0 191.75 C-1.71 138.96, -2.18 86.61, 0 32 M0 191.75 C0.22 150.5, -1.49 108.83, 0 32 M0 32 C1.01 8.99, 9.78 -1.46, 32 0 M0 32 C-0.11 11.57, 11.17 -1.54, 32 0" stroke="#1971c2" stroke-width="1" fill="none"></path></g><g transform="translate(1135.47709215862 157.83103837115058) rotate(0 21.699989318847656 12.5)"><text x="0" y="0" font-family="Virgil, Segoe UI Emoji" font-size="20px" fill="#1971c2" text-anchor="start" style="white-space: pre;" direction="ltr" dominant-baseline="text-before-edge">ORM</text></g><g stroke-linecap="round" transform="translate(1145.0859543960191 197.6391819260891) rotate(0 68.63473026713541 39.80814355493857)"><path d="M19.9 0 M19.9 0 C56.13 -1.05, 93.67 0.09, 117.37 0 M19.9 0 C47 -0.05, 75.77 -0.95, 117.37 0 M117.37 0 C131.27 1.37, 137.22 5.46, 137.27 19.9 M117.37 0 C132.21 -1.97, 137.57 7.27, 137.27 19.9 M137.27 19.9 C138.73 30.62, 136.79 42.54, 137.27 59.71 M137.27 19.9 C138.23 36.04, 136.54 50.06, 137.27 59.71 M137.27 59.71 C135.78 74.73, 129.97 78.89, 117.37 79.62 M137.27 59.71 C135.96 73.91, 130.54 78.08, 117.37 79.62 M117.37 79.62 C96.27 78.69, 74.25 77.55, 19.9 79.62 M117.37 79.62 C97.78 79.69, 77.15 80.96, 19.9 79.62 M19.9 79.62 C5.31 79.43, -0.85 73.08, 0 59.71 M19.9 79.62 C7.58 79.79, 1.31 72.54, 0 59.71 M0 59.71 C0.5 52.72, -0.58 42.47, 0 19.9 M0 59.71 C-0.6 48.17, 1.03 39.48, 0 19.9 M0 19.9 C-0.96 5.45, 6.15 -0.45, 19.9 0 M0 19.9 C-1.56 8.37, 8.59 1.69, 19.9 0" stroke="#1971c2" stroke-width="1" fill="none"></path></g><g transform="translate(1178.030624924244 231.9565470596569) rotate(0 26.989974975585938 12.5)"><text x="0" y="0" font-family="Virgil, Segoe UI Emoji" font-size="20px" fill="#1971c2" text-anchor="start" style="white-space: pre;" direction="ltr" dominant-baseline="text-before-edge">Model</text></g><g stroke-linecap="round" transform="translate(1577.4847550789727 190.77570889937553) rotate(0 67.94838296446414 31.57197592288236)"><path d="M15.79 0 M15.79 0 C55.44 -0.94, 93.32 -0.21, 120.11 0 M15.79 0 C50.69 0.81, 86.9 0, 120.11 0 M120.11 0 C130.8 -0.42, 134.32 5.08, 135.9 15.79 M120.11 0 C130.26 -1.46, 136.29 5.79, 135.9 15.79 M135.9 15.79 C134.11 23.08, 134.78 30.48, 135.9 47.36 M135.9 15.79 C136.64 21.51, 136.55 28.25, 135.9 47.36 M135.9 47.36 C136.41 56.66, 129.99 61.57, 120.11 63.14 M135.9 47.36 C136.33 59.73, 130.67 63.62, 120.11 63.14 M120.11 63.14 C90.63 62.39, 61.61 64.44, 15.79 63.14 M120.11 63.14 C98.8 64, 77.71 63.25, 15.79 63.14 M15.79 63.14 C6.26 65.08, 0.15 59.09, 0 47.36 M15.79 63.14 C3.87 64.82, -1.67 58.49, 0 47.36 M0 47.36 C0.4 38.09, 1.56 30.78, 0 15.79 M0 47.36 C0.07 37.09, -0.27 25.78, 0 15.79 M0 15.79 C1.63 7.14, 4.41 0.95, 15.79 0 M0 15.79 C-1.64 6.34, 7.5 1.46, 15.79 0" stroke="#1971c2" stroke-width="1" fill="none"></path></g><g transform="translate(1617.543161541972 209.8476848222579) rotate(0 27.889976501464844 12.5)"><text x="27.889976501464844" y="0" font-family="Virgil, Segoe UI Emoji" font-size="20px" fill="#1971c2" text-anchor="middle" style="white-space: pre;" direction="ltr" dominant-baseline="text-before-edge">Table</text></g><g stroke-linecap="round" transform="translate(653.6612856833293 46.64277533839109) rotate(0 166.09604724646783 72.7528140831636)"><path d="M32 0 M32 0 C127.15 -0.87, 224.69 -0.1, 300.19 0 M32 0 C101.36 2.27, 170.47 2.01, 300.19 0 M300.19 0 C319.84 -0.73, 331.87 10.6, 332.19 32 M300.19 0 C322.12 1.55, 334.31 8.73, 332.19 32 M332.19 32 C331.72 51.42, 333.78 71.04, 332.19 113.51 M332.19 32 C332.46 64.36, 332.32 95.25, 332.19 113.51 M332.19 113.51 C332.14 134.28, 319.69 144.6, 300.19 145.51 M332.19 113.51 C332.69 134.44, 322.58 147.02, 300.19 145.51 M300.19 145.51 C226.5 148.27, 155.2 148.25, 32 145.51 M300.19 145.51 C199.1 144.98, 98.5 144.81, 32 145.51 M32 145.51 C12.31 147.32, 1.1 133.2, 0 113.51 M32 145.51 C11.6 146.87, -0.12 136.05, 0 113.51 M0 113.51 C-1.32 85.16, -0.86 62.05, 0 32 M0 113.51 C0.7 82.09, 1.65 51.04, 0 32 M0 32 C0.36 12.65, 11.72 1.98, 32 0 M0 32 C2.06 12.84, 11.18 -2, 32 0" stroke="#1971c2" stroke-width="1" fill="none"></path></g><g transform="translate(704.4509860810095 96.05978113072862) rotate(0 109.39990997314453 12.5)"><text x="0" y="0" font-family="Virgil, Segoe UI Emoji" font-size="20px" fill="#1971c2" text-anchor="start" style="white-space: pre;" direction="ltr" dominant-baseline="text-before-edge">View HTML (controller)</text></g><g stroke-linecap="round" transform="translate(658.1561142133083 416.54236726521253) rotate(0 166.09604724646783 72.75281408316363)"><path d="M32 0 M32 0 C99.95 1.02, 165.62 -0.96, 300.19 0 M32 0 C131.51 -1.24, 229.67 -1.69, 300.19 0 M300.19 0 C319.72 2, 330.88 11.09, 332.19 32 M300.19 0 C323.48 0.71, 332.11 9.51, 332.19 32 M332.19 32 C332.61 53.59, 331.19 76.39, 332.19 113.51 M332.19 32 C332.23 64.01, 332.47 95.48, 332.19 113.51 M332.19 113.51 C334.19 133.53, 320.78 147.47, 300.19 145.51 M332.19 113.51 C330.05 134.99, 323.82 146.59, 300.19 145.51 M300.19 145.51 C234.05 144.92, 170.99 143.22, 32 145.51 M300.19 145.51 C206.74 143.8, 112.32 143.54, 32 145.51 M32 145.51 C11.22 144.36, 1.78 134.62, 0 113.51 M32 145.51 C9.21 143.7, -1.67 134.5, 0 113.51 M0 113.51 C-1.05 93.66, 1.31 75.54, 0 32 M0 113.51 C-0.01 95.6, -0.41 77.53, 0 32 M0 32 C0.2 10.34, 11.2 -0.61, 32 0 M0 32 C0.8 9.84, 9.34 1.41, 32 0" stroke="#1971c2" stroke-width="1" fill="none"></path></g><g transform="translate(732.5419715069726 426.24624042491473) rotate(0 100.81991577148438 12.5)"><text x="0" y="0" font-family="Virgil, Segoe UI Emoji" font-size="20px" fill="#1971c2" text-anchor="start" style="white-space: pre;" direction="ltr" dominant-baseline="text-before-edge">View API (controller)</text></g><g stroke-linecap="round" transform="translate(667.1338268322314 201.98777916216838) rotate(0 153.9271671345573 29.651692252549253)"><path d="M14.83 0 M14.83 0 C104.49 -2.9, 191.92 -2.63, 293.03 0 M14.83 0 C83.52 -2.22, 150.54 -2.37, 293.03 0 M293.03 0 C303.98 1.24, 307.33 3.88, 307.85 14.83 M293.03 0 C301.84 -1.27, 308.27 2.81, 307.85 14.83 M307.85 14.83 C307.01 22.24, 308.37 29.77, 307.85 44.48 M307.85 14.83 C307.09 21.24, 307.95 29.97, 307.85 44.48 M307.85 44.48 C307.92 53.73, 304.13 59.5, 293.03 59.3 M307.85 44.48 C307.31 55.54, 301.43 57.75, 293.03 59.3 M293.03 59.3 C224.48 57.73, 155.93 58.04, 14.83 59.3 M293.03 59.3 C184.51 60.05, 77.47 59.28, 14.83 59.3 M14.83 59.3 C4.56 59.18, 1.1 55.78, 0 44.48 M14.83 59.3 C3.64 60.72, -1.13 53.98, 0 44.48 M0 44.48 C-1.11 36.7, -1.7 28.91, 0 14.83 M0 44.48 C-0.57 34.59, -0.36 25.62, 0 14.83 M0 14.83 C0.44 6.23, 4.76 -1.58, 14.83 0 M0 14.83 C-1.36 5.53, 3.92 1.51, 14.83 0" stroke="#1971c2" stroke-width="1" fill="none"></path></g><g transform="translate(688.0644331281486 221.1741682667592) rotate(0 126.16991424560547 12.5)"><text x="0" y="0" font-family="Virgil, Segoe UI Emoji" font-size="20px" fill="#1971c2" text-anchor="start" style="white-space: pre;" direction="ltr" dominant-baseline="text-before-edge">Templates: HTML + data</text></g><g stroke-linecap="round" transform="translate(521.4916913564749 12.740213903251032) rotate(0 447.39170957522856 300.4414112059771)"><path d="M32 0 M32 0 C241.38 0.86, 449.52 0.8, 862.78 0 M32 0 C225.98 -2.87, 420.34 -3.03, 862.78 0 M862.78 0 C885.5 0.1, 895.2 11.32, 894.78 32 M862.78 0 C885.37 -1.09, 896.4 11.99, 894.78 32 M894.78 32 C895.53 154.92, 894.99 279.04, 894.78 568.88 M894.78 32 C895.1 163.27, 895.01 293.4, 894.78 568.88 M894.78 568.88 C896.66 589.53, 884.56 600.82, 862.78 600.88 M894.78 568.88 C896.66 588.62, 882.7 599.52, 862.78 600.88 M862.78 600.88 C532.93 602.62, 201 601.93, 32 600.88 M862.78 600.88 C680.13 601.86, 497.1 602.22, 32 600.88 M32 600.88 C9.84 600.01, 0.71 589.64, 0 568.88 M32 600.88 C8.79 599.83, -0.03 589.12, 0 568.88 M0 568.88 C-0.57 360.77, -1.51 153.8, 0 32 M0 568.88 C-1.16 439.32, -0.95 310.37, 0 32 M0 32 C1.79 8.92, 11.48 1.94, 32 0 M0 32 C-1.1 9.94, 10.67 -1.44, 32 0" stroke="#f08c00" stroke-width="1" fill="none"></path></g><g stroke-linecap="round" transform="translate(63.63467863328765 92.97420470426667) rotate(0 98.11221701211156 56.2510044202773)"><path d="M28.13 0 M28.13 0 C68.94 -1.21, 111.18 1.41, 168.1 0 M28.13 0 C75.8 1.26, 120.73 -0.1, 168.1 0 M168.1 0 C185.81 -1.41, 197.41 8.85, 196.22 28.13 M168.1 0 C186.79 2.28, 197.88 9.34, 196.22 28.13 M196.22 28.13 C195.16 46.42, 197.78 65.88, 196.22 84.38 M196.22 28.13 C196.17 49.75, 196.67 73.48, 196.22 84.38 M196.22 84.38 C198.2 104.78, 188.46 111.74, 168.1 112.5 M196.22 84.38 C197.96 104.12, 187.62 113.77, 168.1 112.5 M168.1 112.5 C119.69 112.65, 72.4 111.15, 28.13 112.5 M168.1 112.5 C140.43 113.52, 111.4 114.53, 28.13 112.5 M28.13 112.5 C9.45 113.69, 0.81 101.67, 0 84.38 M28.13 112.5 C9.04 110.22, -1.83 100.91, 0 84.38 M0 84.38 C0.36 67.03, -0.88 45.64, 0 28.13 M0 84.38 C0.33 71.53, 0.62 59.02, 0 28.13 M0 28.13 C1.42 11.12, 10.12 -0.58, 28.13 0 M0 28.13 C0.3 7.08, 9.46 1.19, 28.13 0" stroke="#2f9e44" stroke-width="1" fill="none"></path></g><g transform="translate(88.9258279075209 139.195960274417) rotate(0 72.86993408203125 12.5)"><text x="0" y="0" font-family="Virgil, Segoe UI Emoji" font-size="20px" fill="#2f9e44" text-anchor="start" style="white-space: pre;" direction="ltr" dominant-baseline="text-before-edge">Client: Browser</text></g><g stroke-linecap="round"><g transform="translate(258.9870040618472 155.76602359201812) rotate(0 198.63923983874798 -4.368375384109811)"><path d="M1.09 -0.37 C67.12 -1.59, 331.05 -7.23, 397.07 -8.37 M0.21 -1.61 C66.02 -2.58, 330.18 -5.85, 396.26 -7.1" stroke="#2f9e44" stroke-width="1" fill="none"></path></g><g transform="translate(258.9870040618472 155.76602359201812) rotate(0 198.63923983874798 -4.368375384109811)"><path d="M367.61 4.02 C377.95 0.04, 390.45 -4.25, 397.47 -7.12 M369.07 3.55 C377.18 1.15, 385.64 -2.19, 397.11 -6.56" stroke="#2f9e44" stroke-width="1" fill="none"></path></g><g transform="translate(258.9870040618472 155.76602359201812) rotate(0 198.63923983874798 -4.368375384109811)"><path d="M367.3 -16.5 C377.58 -12.8, 390.2 -9.41, 397.47 -7.12 M368.76 -16.97 C377.05 -13.12, 385.6 -10.2, 397.11 -6.56" stroke="#2f9e44" stroke-width="1" fill="none"></path></g></g><mask></mask><g stroke-linecap="round" transform="translate(10 432.66050271508846) rotate(0 98.11221701211156 56.2510044202773)"><path d="M28.13 0 M28.13 0 C58.81 0.9, 87.34 -1.63, 168.1 0 M28.13 0 C72.06 0.03, 115.31 -0.51, 168.1 0 M168.1 0 C185.87 0.62, 194.89 9.72, 196.22 28.13 M168.1 0 C188.64 -2.2, 194.94 9.06, 196.22 28.13 M196.22 28.13 C196.09 49.9, 195.04 74.62, 196.22 84.38 M196.22 28.13 C196.3 41.02, 197.02 54.01, 196.22 84.38 M196.22 84.38 C197.66 103.62, 186.29 110.92, 168.1 112.5 M196.22 84.38 C198.43 104.22, 187.44 113.74, 168.1 112.5 M168.1 112.5 C123.77 112.58, 77.14 110.09, 28.13 112.5 M168.1 112.5 C120.51 113.77, 73.34 114.01, 28.13 112.5 M28.13 112.5 C7.98 111.4, -1.34 101.78, 0 84.38 M28.13 112.5 C7.61 111.82, -0.05 103.57, 0 84.38 M0 84.38 C-1.45 73.59, 1.1 62.25, 0 28.13 M0 84.38 C0.61 62.76, -0.39 39.94, 0 28.13 M0 28.13 C-0.16 8.8, 7.43 1.49, 28.13 0 M0 28.13 C-0.78 9.11, 8.98 1.09, 28.13 0" stroke="#2f9e44" stroke-width="1" fill="none"></path></g><g transform="translate(51.861212591834374 464.056412158964) rotate(0 53.08995819091797 25)"><text x="0" y="0" font-family="Virgil, Segoe UI Emoji" font-size="20px" fill="#2f9e44" text-anchor="start" style="white-space: pre;" direction="ltr" dominant-baseline="text-before-edge">Client API:</text><text x="0" y="25" font-family="Virgil, Segoe UI Emoji" font-size="20px" fill="#2f9e44" text-anchor="start" style="white-space: pre;" direction="ltr" dominant-baseline="text-before-edge">Program</text></g><g stroke-linecap="round"><g transform="translate(208.40470551338115 488.03939853970246) rotate(0 227.0402282370497 -3.017687422239419)"><path d="M-0.77 -0.12 C74.92 -1.01, 378.86 -5.01, 454.85 -5.91 M1.03 -1.23 C76.54 -1.85, 378.52 -3.21, 454.15 -4.28" stroke="#2f9e44" stroke-width="1" fill="none"></path></g><g transform="translate(208.40470551338115 488.03939853970246) rotate(0 227.0402282370497 -3.017687422239419)"><path d="M425.85 7.03 C436.49 4.01, 447.14 -2.45, 453.26 -2.68 M426.42 6.96 C435.47 2.93, 444.37 -0.63, 454.89 -4.01" stroke="#2f9e44" stroke-width="1" fill="none"></path></g><g transform="translate(208.40470551338115 488.03939853970246) rotate(0 227.0402282370497 -3.017687422239419)"><path d="M425.67 -13.49 C436.28 -9.16, 446.99 -8.26, 453.26 -2.68 M426.25 -13.56 C435.55 -10.85, 444.51 -7.68, 454.89 -4.01" stroke="#2f9e44" stroke-width="1" fill="none"></path></g></g><mask></mask><g transform="translate(357.5352753717906 443.5618601608786) rotate(0 116.65995025634766 12.5)"><text x="0" y="0" font-family="Virgil, Segoe UI Emoji" font-size="20px" fill="#2f9e44" text-anchor="start" style="white-space: pre;" direction="ltr" dominant-baseline="text-before-edge">JSON / XML / CSV / ...</text></g><g transform="translate(361.89581835010665 171.46397831395595) rotate(0 27.199981689453125 12.5)"><text x="0" y="0" font-family="Virgil, Segoe UI Emoji" font-size="20px" fill="#2f9e44" text-anchor="start" style="white-space: pre;" direction="ltr" dominant-baseline="text-before-edge">HTML</text></g><g transform="translate(313.92984558862986 121.75378836115274) rotate(0 134.61988830566412 12.5)"><text x="0" y="0" font-family="Virgil, Segoe UI Emoji" font-size="20px" fill="#2f9e44" text-anchor="start" style="white-space: pre;" direction="ltr" dominant-baseline="text-before-edge">GET url, POST url:form,file</text></g><g transform="translate(353.3773339559975 498.214222026946) rotate(0 116.6599502563476 12.5)"><text x="0" y="0" font-family="Virgil, Segoe UI Emoji" font-size="20px" fill="#2f9e44" text-anchor="start" style="white-space: pre;" direction="ltr" dominant-baseline="text-before-edge">JSON / XML / CSV / ...</text></g><g transform="translate(231.0795290006247 408.6775163343501) rotate(0 195.54989624023443 12.5)"><text x="0" y="0" font-family="Virgil, Segoe UI Emoji" font-size="20px" fill="#2f9e44" text-anchor="start" style="white-space: pre;" direction="ltr" dominant-baseline="text-before-edge">GET, POST, PUT, PATCH, DELETE url</text></g><g stroke-linecap="round" transform="translate(660.1569580669255 301.4081590677748) rotate(0 164.82852458034745 33.14012663520208)"><path d="M16.57 0 M16.57 0 C75.4 0.3, 135.58 2.16, 313.09 0 M16.57 0 C84.08 -1.5, 152.48 -1.64, 313.09 0 M313.09 0 C325.23 -0.24, 329.2 4.66, 329.66 16.57 M313.09 0 C324.24 0.61, 329.7 5.74, 329.66 16.57 M329.66 16.57 C330.91 24.19, 329.18 31.4, 329.66 49.71 M329.66 16.57 C329.97 28.44, 330.38 38.77, 329.66 49.71 M329.66 49.71 C330.67 59.23, 322.32 66.11, 313.09 66.28 M329.66 49.71 C329.41 62.22, 323.53 66.99, 313.09 66.28 M313.09 66.28 C210.37 64.06, 110.28 65.92, 16.57 66.28 M313.09 66.28 C219.91 65.26, 127.95 65.5, 16.57 66.28 M16.57 66.28 C7.44 65.88, 0.45 62.49, 0 49.71 M16.57 66.28 C5.45 66.81, -0.46 61.89, 0 49.71 M0 49.71 C-1.75 42.04, -1.39 34.94, 0 16.57 M0 49.71 C-0.26 41.6, -0.42 34.56, 0 16.57 M0 16.57 C-1.69 4.84, 6 1.59, 16.57 0 M0 16.57 C1.6 7.07, 6.74 -1.16, 16.57 0" stroke="#f08c00" stroke-width="1" fill="none"></path></g><g transform="translate(719.4603425720242 334.54828570297684) rotate(0 33.41996765136719 12.5)"><text x="0" y="0" font-family="Virgil, Segoe UI Emoji" font-size="20px" fill="#f08c00" text-anchor="start" style="white-space: pre;" direction="ltr" dominant-baseline="text-before-edge">Router</text></g><g stroke-linecap="round"><g transform="translate(941.8480344661435 151.405480613702) rotate(0 69.5161843929003 23.04115226739472)"><path d="M-1.05 0.62 C21.86 8.18, 114.63 37.4, 137.82 44.59 M0.6 -0.1 C23.85 7.74, 117.35 38.72, 140.08 46.18" stroke="#1971c2" stroke-width="1" fill="none"></path></g><g transform="translate(941.8480344661435 151.405480613702) rotate(0 69.5161843929003 23.04115226739472)"><path d="M111.13 45.67 C120.19 46.08, 128.7 45.02, 138.9 46.68 M109.34 48.07 C117.17 46.88, 122.82 45.81, 140.31 45.81" stroke="#1971c2" stroke-width="1" fill="none"></path></g><g transform="translate(941.8480344661435 151.405480613702) rotate(0 69.5161843929003 23.04115226739472)"><path d="M117.56 26.18 C124.38 32.98, 130.76 38.35, 138.9 46.68 M115.78 28.58 C122.39 31.64, 126.67 34.76, 140.31 45.81" stroke="#1971c2" stroke-width="1" fill="none"></path></g></g><mask></mask><g stroke-linecap="round"><g transform="translate(976.7323782926723 495.88837590067146) rotate(0 53.41260918468231 -117.41029915975918)"><path d="M-0.8 -1.16 C17.12 -40.46, 89.59 -196.74, 107.62 -235.67 M0.98 0.85 C18.77 -38.35, 89.24 -195.65, 106.86 -234.69" stroke="#1971c2" stroke-width="1" fill="none"></path></g><g transform="translate(976.7323782926723 495.88837590067146) rotate(0 53.41260918468231 -117.41029915975918)"><path d="M102.73 -204.18 C103.53 -213.77, 105.84 -221.42, 105.94 -234.47 M104.14 -204.79 C105.58 -212.53, 106.5 -220.78, 107.65 -233.7" stroke="#1971c2" stroke-width="1" fill="none"></path></g><g transform="translate(976.7323782926723 495.88837590067146) rotate(0 53.41260918468231 -117.41029915975918)"><path d="M84.01 -212.59 C90.58 -219.47, 98.66 -224.52, 105.94 -234.47 M85.42 -213.2 C91.78 -218.67, 97.63 -224.7, 107.65 -233.7" stroke="#1971c2" stroke-width="1" fill="none"></path></g></g><mask></mask></svg>